<svg xmlns="http://www.w3.org/2000/svg" width="682" height="264" fill="none"><path fill="#FDCB26" stroke="#000" stroke-width="1.195" d="M1.525 54.199h678.877v153.584c0 12.872-10.434 23.306-23.306 23.306H24.832c-12.872 0-23.307-10.434-23.307-23.306V54.199Z"/><path fill="#333" d="M268.983 105h-2.699a.683.683 0 0 1-.355-.107 3.493 3.493 0 0 1-.355-.319l-12.997-17.543c-.024-.07-.06-.106-.107-.106s-.071.035-.071.106l.106 17.294c0 .166-.071.32-.213.462a.571.571 0 0 1-.461.213h-2.521a.705.705 0 0 1-.462-.178.749.749 0 0 1-.178-.497V81.527c0-.19.059-.343.178-.461.142-.142.296-.213.462-.213h2.734c.142 0 .272.047.39.142.143.07.273.189.391.355L265.787 98.5c.047.072.082.107.106.107.024 0 .036-.035.036-.107l-.107-16.974c0-.19.059-.343.178-.461.142-.142.296-.213.461-.213h2.522c.189 0 .343.07.461.213a.572.572 0 0 1 .213.461v22.798c0 .166-.071.32-.213.462a.571.571 0 0 1-.461.213Zm17.283-5.114c.166-.213.331-.367.497-.461.189-.095.402-.142.639-.142h2.486c.308 0 .509.083.604.248.118.166.106.403-.036.711-.686 1.538-1.787 2.769-3.302 3.693-1.492.899-3.185 1.349-5.078 1.349-2.676 0-4.865-.84-6.57-2.521-1.681-1.705-2.521-3.895-2.521-6.57 0-2.651.864-4.841 2.592-6.57 1.728-1.727 3.918-2.592 6.57-2.592 2.627 0 4.794.865 6.498 2.593 1.705 1.704 2.557 3.894 2.557 6.57 0 .33-.071.591-.213.78-.142.166-.344.25-.604.25h-13.352c.118 1.396.639 2.52 1.562 3.373.947.828 2.119 1.243 3.516 1.243.852 0 1.645-.166 2.379-.498a4.676 4.676 0 0 0 1.776-1.456Zm-4.155-9.41c-1.302 0-2.427.39-3.373 1.172-.924.758-1.48 1.752-1.67 2.983h9.979c-.213-1.255-.769-2.261-1.669-3.019-.9-.757-1.989-1.136-3.267-1.136Zm24.442 9.41c.166-.213.331-.367.497-.461.189-.095.402-.142.639-.142h2.486c.308 0 .509.083.604.248.118.166.106.403-.036.711-.686 1.538-1.787 2.769-3.302 3.693-1.492.899-3.185 1.349-5.078 1.349-2.676 0-4.865-.84-6.57-2.521-1.681-1.705-2.521-3.895-2.521-6.57 0-2.651.864-4.841 2.592-6.57 1.728-1.727 3.918-2.592 6.57-2.592 2.627 0 4.794.865 6.498 2.593 1.705 1.704 2.557 3.894 2.557 6.57 0 .33-.071.591-.213.78-.142.166-.344.25-.604.25H297.32c.118 1.396.639 2.52 1.562 3.373.947.828 2.119 1.243 3.516 1.243.852 0 1.645-.166 2.379-.498a4.676 4.676 0 0 0 1.776-1.456Zm-4.155-9.41c-1.302 0-2.427.39-3.374 1.172-.923.758-1.479 1.752-1.669 2.983h9.979c-.213-1.255-.769-2.261-1.669-3.019-.9-.757-1.989-1.136-3.267-1.136ZM331.208 105h-2.415a.705.705 0 0 1-.462-.178.753.753 0 0 1-.177-.497v-1.811a7.376 7.376 0 0 1-2.628 2.06 7.427 7.427 0 0 1-3.232.71c-2.462 0-4.545-.876-6.25-2.628-1.68-1.752-2.521-3.918-2.521-6.498s.852-4.747 2.557-6.499c1.705-1.752 3.788-2.628 6.25-2.628 1.113 0 2.154.225 3.125.675a7.145 7.145 0 0 1 2.557 1.918v-8.097c0-.19.059-.343.177-.461.142-.142.296-.213.462-.213h2.557c.189 0 .343.07.461.213a.572.572 0 0 1 .213.461v22.798c0 .166-.071.32-.213.462a.571.571 0 0 1-.461.213Zm-13.779-8.842c0 1.562.521 2.888 1.563 3.977 1.042 1.065 2.308 1.598 3.8 1.598 1.491 0 2.746-.533 3.764-1.598 1.041-1.065 1.562-2.391 1.562-3.977 0-1.586-.521-2.912-1.562-3.977-1.018-1.066-2.273-1.598-3.764-1.598-1.492 0-2.758.544-3.8 1.633-1.042 1.065-1.563 2.38-1.563 3.942ZM358.916 105h-2.45a.705.705 0 0 1-.462-.178.754.754 0 0 1-.178-.497v-1.775a7.649 7.649 0 0 1-2.592 2.024 7.423 7.423 0 0 1-3.231.71c-2.462 0-4.546-.876-6.25-2.628-1.681-1.752-2.522-3.918-2.522-6.498s.853-4.747 2.557-6.499c1.705-1.752 3.788-2.628 6.25-2.628 1.16 0 2.225.237 3.196.71a7.26 7.26 0 0 1 2.592 1.99v-1.67c0-.19.06-.343.178-.461.142-.142.296-.213.462-.213h2.45c.189 0 .343.07.461.213a.57.57 0 0 1 .214.461v16.264c0 .166-.071.32-.214.462a.571.571 0 0 1-.461.213Zm-13.778-8.842c0 1.562.52 2.888 1.562 3.977 1.042 1.065 2.308 1.598 3.8 1.598 1.491 0 2.746-.533 3.764-1.598 1.042-1.065 1.562-2.391 1.562-3.977 0-1.586-.52-2.912-1.562-3.977-1.018-1.066-2.273-1.598-3.764-1.598-1.492 0-2.758.544-3.8 1.633-1.042 1.065-1.562 2.38-1.562 3.942ZM394.294 105h-2.556a.705.705 0 0 1-.462-.178.754.754 0 0 1-.178-.497V93.779c0-1.018-.284-1.811-.852-2.38-.568-.568-1.361-.852-2.379-.852-1.16 0-2.024.32-2.592.959-.569.64-.853 1.657-.853 3.054v9.765c0 .166-.071.32-.213.462a.571.571 0 0 1-.461.213h-2.593a.704.704 0 0 1-.461-.178.749.749 0 0 1-.178-.497V93.779c0-1.018-.284-1.811-.852-2.38-.545-.568-1.326-.852-2.344-.852-1.041 0-1.882.296-2.521.888-.639.592-.959 1.361-.959 2.308v10.582c0 .166-.071.32-.213.462a.572.572 0 0 1-.462.213h-2.556a.705.705 0 0 1-.462-.178.754.754 0 0 1-.178-.497V88.061c0-.19.06-.343.178-.461.142-.142.296-.213.462-.213h2.45c.189 0 .343.07.462.213a.572.572 0 0 1 .213.461v1.42c.52-.804 1.183-1.408 1.988-1.81.805-.403 1.752-.604 2.841-.604 1.184 0 2.214.249 3.09.746a4.731 4.731 0 0 1 2.024 2.166c.97-1.184 1.846-1.965 2.627-2.344.782-.402 1.681-.604 2.699-.604 1.894 0 3.362.545 4.404 1.634 1.041 1.065 1.562 2.569 1.562 4.51v11.15c0 .166-.071.32-.213.462a.572.572 0 0 1-.462.213Zm12.975-17.969c2.604 0 4.794.876 6.569 2.628 1.776 1.752 2.663 3.918 2.663 6.499 0 2.58-.887 4.746-2.663 6.498-1.775 1.752-3.965 2.628-6.569 2.628s-4.794-.876-6.57-2.628c-1.775-1.752-2.663-3.918-2.663-6.498s.888-4.747 2.663-6.499c1.776-1.752 3.966-2.628 6.57-2.628Zm-5.327 9.127c0 1.562.509 2.876 1.527 3.941 1.042 1.066 2.308 1.598 3.8 1.598 1.467 0 2.722-.532 3.764-1.598 1.041-1.089 1.562-2.402 1.562-3.941 0-1.539-.521-2.841-1.562-3.906-1.042-1.09-2.297-1.634-3.764-1.634-1.492 0-2.758.533-3.8 1.598-1.018 1.065-1.527 2.38-1.527 3.942ZM422.721 105h-2.557a.704.704 0 0 1-.461-.178.749.749 0 0 1-.178-.497V88.061c0-.19.059-.343.178-.461.142-.142.296-.213.461-.213h2.451c.189 0 .343.07.461.213a.572.572 0 0 1 .213.461v1.101c.45-.686 1.006-1.207 1.669-1.562.663-.38 1.409-.569 2.238-.569.473 0 .899.06 1.278.178.402.095.675.237.817.426a.422.422 0 0 1 .248.32c.048.142.024.296-.071.461l-1.278 2.309a.54.54 0 0 1-.32.284.764.764 0 0 1-.461 0 4.993 4.993 0 0 0-.675-.142 1.69 1.69 0 0 0-.462-.071c-.899 0-1.61.331-2.13.994-.498.64-.746 1.503-.746 2.592v9.943c0 .166-.071.32-.213.462a.573.573 0 0 1-.462.213Zm20.466-5.114c.165-.213.331-.367.497-.461.189-.095.402-.142.639-.142h2.486c.307 0 .509.083.603.248.119.166.107.403-.035.711-.687 1.538-1.788 2.769-3.303 3.693-1.491.899-3.184 1.349-5.078 1.349-2.675 0-4.865-.84-6.569-2.521-1.681-1.705-2.522-3.895-2.522-6.57 0-2.651.865-4.841 2.593-6.57 1.728-1.727 3.918-2.592 6.569-2.592 2.628 0 4.794.865 6.499 2.593 1.704 1.704 2.557 3.894 2.557 6.57 0 .33-.071.591-.214.78-.142.166-.343.25-.603.25h-13.352c.118 1.396.639 2.52 1.562 3.373.947.828 2.119 1.243 3.516 1.243.852 0 1.645-.166 2.379-.498a4.676 4.676 0 0 0 1.776-1.456Zm-4.155-9.41c-1.302 0-2.427.39-3.374 1.172-.923.758-1.479 1.752-1.669 2.983h9.979c-.213-1.255-.77-2.261-1.669-3.019-.9-.757-1.989-1.136-3.267-1.136Zm31.177 8.7c.119-.19.249-.331.391-.426.166-.095.343-.142.533-.142h2.557c.331 0 .556.071.674.213.119.142.119.355 0 .64a8.54 8.54 0 0 1-3.302 4.261c-1.539 1.041-3.303 1.562-5.291 1.562-2.605 0-4.794-.876-6.57-2.628-1.752-1.752-2.628-3.918-2.628-6.498s.876-4.747 2.628-6.499c1.776-1.752 3.965-2.628 6.57-2.628 1.965 0 3.716.521 5.255 1.563 1.539 1.018 2.652 2.403 3.338 4.155.119.26.13.473.036.639-.095.142-.272.213-.533.213h-2.699c-.236 0-.426-.035-.568-.106a2.114 2.114 0 0 1-.462-.462 5.413 5.413 0 0 0-1.917-1.74 4.917 4.917 0 0 0-2.45-.64c-1.468 0-2.711.533-3.729 1.599-1.018 1.065-1.527 2.367-1.527 3.906 0 1.539.509 2.84 1.527 3.906 1.018 1.065 2.261 1.598 3.729 1.598.923 0 1.775-.213 2.556-.639a5.202 5.202 0 0 0 1.882-1.847Zm15.468-12.145c2.604 0 4.794.876 6.57 2.628 1.775 1.752 2.663 3.918 2.663 6.499 0 2.58-.888 4.746-2.663 6.498-1.776 1.752-3.966 2.628-6.57 2.628s-4.794-.876-6.57-2.628c-1.775-1.752-2.663-3.918-2.663-6.498s.888-4.747 2.663-6.499c1.776-1.752 3.966-2.628 6.57-2.628Zm-5.327 9.127c0 1.562.509 2.876 1.527 3.941 1.042 1.066 2.309 1.598 3.8 1.598 1.468 0 2.722-.532 3.764-1.598 1.042-1.089 1.563-2.402 1.563-3.941 0-1.539-.521-2.841-1.563-3.906-1.042-1.09-2.296-1.634-3.764-1.634-1.491 0-2.758.533-3.8 1.598-1.018 1.065-1.527 2.38-1.527 3.942ZM522.258 105h-2.556a.705.705 0 0 1-.462-.178.754.754 0 0 1-.178-.497V93.779c0-1.018-.284-1.811-.852-2.38-.568-.568-1.361-.852-2.379-.852-1.16 0-2.024.32-2.592.959-.568.64-.853 1.657-.853 3.054v9.765c0 .166-.071.32-.213.462a.571.571 0 0 1-.461.213h-2.593a.704.704 0 0 1-.461-.178.749.749 0 0 1-.178-.497V93.779c0-1.018-.284-1.811-.852-2.38-.545-.568-1.326-.852-2.344-.852-1.041 0-1.882.296-2.521.888-.639.592-.959 1.361-.959 2.308v10.582c0 .166-.071.32-.213.462a.572.572 0 0 1-.462.213h-2.556a.705.705 0 0 1-.462-.178.753.753 0 0 1-.177-.497V88.061c0-.19.059-.343.177-.461.142-.142.296-.213.462-.213h2.45c.189 0 .343.07.462.213a.572.572 0 0 1 .213.461v1.42c.52-.804 1.183-1.408 1.988-1.81.805-.403 1.752-.604 2.841-.604 1.184 0 2.214.249 3.09.746a4.731 4.731 0 0 1 2.024 2.166c.97-1.184 1.846-1.965 2.628-2.344.781-.402 1.68-.604 2.698-.604 1.894 0 3.362.545 4.404 1.634 1.041 1.065 1.562 2.569 1.562 4.51v11.15c0 .166-.071.32-.213.462a.572.572 0 0 1-.462.213Zm7.932 6.392h-2.557c-.165 0-.319-.071-.461-.213a.572.572 0 0 1-.213-.462V88.061c0-.19.071-.343.213-.461.142-.142.296-.213.461-.213h2.451a.54.54 0 0 1 .426.213.572.572 0 0 1 .213.461v1.74a7.467 7.467 0 0 1 2.592-2.06 7.735 7.735 0 0 1 3.303-.71c2.462 0 4.521.876 6.179 2.628 1.657 1.728 2.485 3.883 2.485 6.463s-.84 4.759-2.521 6.534c-1.657 1.752-3.717 2.628-6.179 2.628a7.66 7.66 0 0 1-3.196-.675 7.286 7.286 0 0 1-2.557-1.917v8.025c0 .19-.071.344-.213.462a.537.537 0 0 1-.426.213Zm.568-15.234c0 1.586.509 2.912 1.527 3.977 1.042 1.065 2.309 1.598 3.8 1.598 1.491 0 2.758-.533 3.8-1.598 1.041-1.089 1.562-2.415 1.562-3.977 0-1.563-.521-2.877-1.562-3.942-1.042-1.089-2.309-1.633-3.8-1.633-1.491 0-2.758.532-3.8 1.598-1.018 1.065-1.527 2.39-1.527 3.977ZM551.554 105h-2.557a.705.705 0 0 1-.462-.178.753.753 0 0 1-.177-.497V81.527c0-.19.059-.343.177-.461.142-.142.296-.213.462-.213h2.557c.189 0 .343.07.462.213a.572.572 0 0 1 .213.461v22.798c0 .166-.071.32-.213.462a.575.575 0 0 1-.462.213Zm17.1-5.114c.165-.213.331-.367.497-.461.189-.095.402-.142.639-.142h2.486c.308 0 .509.083.604.248.118.166.106.403-.036.711-.687 1.538-1.787 2.769-3.302 3.693-1.492.899-3.185 1.349-5.079 1.349-2.675 0-4.865-.84-6.569-2.521-1.681-1.705-2.521-3.895-2.521-6.57 0-2.651.864-4.841 2.592-6.57 1.728-1.727 3.918-2.592 6.569-2.592 2.628 0 4.794.865 6.499 2.593 1.704 1.704 2.557 3.894 2.557 6.57 0 .33-.071.591-.213.78-.142.166-.344.25-.604.25h-13.352c.118 1.396.639 2.52 1.562 3.373.947.828 2.119 1.243 3.516 1.243.852 0 1.645-.166 2.379-.498a4.676 4.676 0 0 0 1.776-1.456Zm-4.155-9.41c-1.302 0-2.427.39-3.374 1.172-.923.758-1.479 1.752-1.669 2.983h9.979c-.213-1.255-.769-2.261-1.669-3.019-.9-.757-1.989-1.136-3.267-1.136ZM591.577 105h-2.841c-.142 0-.272-.024-.391-.071a1.912 1.912 0 0 1-.355-.284l-4.9-5.86-4.865 5.86a.881.881 0 0 1-.32.248.884.884 0 0 1-.39.107h-2.628c-.284 0-.462-.118-.533-.355-.071-.237-.024-.462.142-.675l6.463-7.848-6.356-7.67c-.166-.237-.213-.474-.142-.71.094-.237.272-.355.532-.355h2.806c.142 0 .272.035.39.106.119.071.225.178.32.32l4.723 5.575 4.723-5.61c.094-.12.201-.214.319-.285a.688.688 0 0 1 .355-.106h2.664c.237 0 .402.118.497.355a.592.592 0 0 1-.071.674l-6.321 7.635 6.57 7.955a.638.638 0 0 1 .142.639c-.071.237-.249.355-.533.355Zm-385.601 30.176c.118-.189.248-.331.39-.426.166-.095.344-.142.533-.142h2.557c.331 0 .556.071.675.213.118.142.118.355 0 .639a8.54 8.54 0 0 1-3.303 4.262c-1.539 1.041-3.302 1.562-5.291 1.562-2.604 0-4.794-.876-6.57-2.628-1.751-1.752-2.627-3.918-2.627-6.498 0-2.581.876-4.747 2.627-6.499 1.776-1.752 3.966-2.628 6.57-2.628 1.965 0 3.717.521 5.256 1.563 1.538 1.018 2.651 2.403 3.338 4.155.118.26.13.473.035.639-.095.142-.272.213-.533.213h-2.698c-.237 0-.427-.036-.569-.107a2.094 2.094 0 0 1-.461-.461 5.415 5.415 0 0 0-1.918-1.74 4.915 4.915 0 0 0-2.45-.639c-1.468 0-2.711.532-3.729 1.598-1.018 1.065-1.527 2.367-1.527 3.906 0 1.539.509 2.841 1.527 3.906 1.018 1.065 2.261 1.598 3.729 1.598.923 0 1.775-.213 2.557-.639a5.22 5.22 0 0 0 1.882-1.847ZM227.445 141h-2.451c-.165 0-.319-.071-.461-.213-.142-.142-.213-.296-.213-.462v-1.491c-.474.734-1.16 1.326-2.06 1.775-.876.45-1.858.675-2.947.675-1.918 0-3.421-.544-4.51-1.633-1.066-1.089-1.598-2.593-1.598-4.51v-11.08c0-.189.071-.343.213-.461.142-.142.296-.213.461-.213h2.557c.166 0 .308.071.426.213a.571.571 0 0 1 .213.461v10.547c0 1.018.296 1.823.888 2.415.616.568 1.468.852 2.557.852 1.065 0 1.941-.308 2.628-.923.71-.616 1.065-1.385 1.065-2.308v-10.583c0-.189.071-.343.213-.461.142-.142.296-.213.462-.213h2.557a.54.54 0 0 1 .426.213.571.571 0 0 1 .213.461v16.264a.68.68 0 0 1-.213.497.581.581 0 0 1-.426.178Zm19.467-13.246c.071.261.047.462-.071.604-.095.142-.284.213-.568.213H244c-.237 0-.426-.035-.568-.106-.119-.095-.213-.249-.284-.462-.237-.568-.722-1.006-1.456-1.314-.71-.308-1.634-.462-2.77-.462-1.184 0-2.107.178-2.77.533-.663.332-.994.805-.994 1.421 0 .568.284 1.018.852 1.349.568.308 1.847.592 3.835.852 1.421.213 2.462.403 3.125.568.687.166 1.29.356 1.811.569.876.426 1.527.97 1.953 1.633.426.639.639 1.421.639 2.344 0 1.799-.745 3.219-2.237 4.261-1.491 1.018-3.492 1.527-6.001 1.527-2.32 0-4.155-.414-5.504-1.243-1.35-.852-2.19-2.107-2.522-3.764-.047-.237-.023-.414.072-.533.094-.142.26-.213.497-.213h2.485c.213 0 .391.048.533.142.142.071.261.202.355.391.261.71.734 1.231 1.421 1.562.71.332 1.68.498 2.912.498 1.278 0 2.284-.19 3.018-.569.734-.402 1.101-.958 1.101-1.669 0-.591-.296-1.053-.888-1.384-.592-.332-1.882-.628-3.871-.888-1.42-.166-2.474-.332-3.16-.497a11.583 11.583 0 0 1-1.74-.569c-.876-.402-1.527-.923-1.953-1.562-.426-.663-.639-1.456-.639-2.379 0-1.776.686-3.149 2.059-4.12 1.397-.97 3.35-1.456 5.859-1.456 2.155 0 3.895.403 5.221 1.208 1.325.805 2.166 1.977 2.521 3.515ZM258.229 141h-1.705c-1.822 0-3.148-.402-3.977-1.207-.828-.829-1.243-2.131-1.243-3.907v-9.126h-1.988a.753.753 0 0 1-.497-.177.705.705 0 0 1-.178-.462v-2.06c0-.189.071-.343.213-.461.142-.142.296-.213.462-.213h1.988v-3.729c0-.189.06-.343.178-.462.142-.142.296-.213.462-.213h2.556c.19 0 .344.071.462.213a.575.575 0 0 1 .213.462v3.729h3.018c.19 0 .344.071.462.213a.571.571 0 0 1 .213.461v2.06c0 .166-.071.32-.213.462a.625.625 0 0 1-.462.177h-3.018v8.487c0 .852.178 1.456.533 1.811.355.355.947.533 1.775.533h.746c.189 0 .343.071.462.213a.572.572 0 0 1 .213.462v2.095c0 .166-.071.319-.213.461a.625.625 0 0 1-.462.178Zm11.279-17.969c2.604 0 4.794.876 6.569 2.628 1.776 1.752 2.664 3.918 2.664 6.499 0 2.58-.888 4.746-2.664 6.498-1.775 1.752-3.965 2.628-6.569 2.628s-4.794-.876-6.57-2.628c-1.775-1.752-2.663-3.918-2.663-6.498 0-2.581.888-4.747 2.663-6.499 1.776-1.752 3.966-2.628 6.57-2.628Zm-5.327 9.127c0 1.562.509 2.876 1.527 3.941 1.042 1.066 2.308 1.598 3.8 1.598 1.468 0 2.722-.532 3.764-1.598 1.042-1.089 1.563-2.402 1.563-3.941 0-1.539-.521-2.841-1.563-3.906-1.042-1.089-2.296-1.634-3.764-1.634-1.492 0-2.758.533-3.8 1.598-1.018 1.065-1.527 2.379-1.527 3.942ZM306.089 141h-2.556a.705.705 0 0 1-.462-.178.754.754 0 0 1-.178-.497v-10.546c0-1.018-.284-1.812-.852-2.38-.568-.568-1.361-.852-2.379-.852-1.16 0-2.024.32-2.592.959-.569.639-.853 1.657-.853 3.054v9.765c0 .166-.071.32-.213.462a.571.571 0 0 1-.461.213h-2.593a.704.704 0 0 1-.461-.178.749.749 0 0 1-.178-.497v-10.546c0-1.018-.284-1.812-.852-2.38-.545-.568-1.326-.852-2.344-.852-1.042 0-1.882.296-2.521.888-.639.592-.959 1.361-.959 2.308v10.582c0 .166-.071.32-.213.462a.572.572 0 0 1-.462.213h-2.556a.705.705 0 0 1-.462-.178.754.754 0 0 1-.178-.497v-16.264c0-.189.06-.343.178-.461.142-.142.296-.213.462-.213h2.45c.189 0 .343.071.461.213a.57.57 0 0 1 .214.461v1.421c.52-.805 1.183-1.409 1.988-1.811.805-.403 1.752-.604 2.841-.604 1.184 0 2.214.249 3.089.746a4.727 4.727 0 0 1 2.025 2.166c.97-1.184 1.846-1.965 2.627-2.344.782-.402 1.681-.604 2.699-.604 1.894 0 3.362.545 4.404 1.634 1.041 1.065 1.562 2.569 1.562 4.51v11.15c0 .166-.071.32-.213.462a.572.572 0 0 1-.462.213Zm9.068-22.123c0 .639-.236 1.195-.71 1.669-.45.45-.982.674-1.598.674-.615 0-1.16-.224-1.633-.674a2.345 2.345 0 0 1-.675-1.669c0-.616.225-1.148.675-1.598.473-.474 1.018-.71 1.633-.71.616 0 1.148.236 1.598.71.474.45.71.982.71 1.598ZM314.092 141h-2.557a.704.704 0 0 1-.461-.178.749.749 0 0 1-.178-.497v-16.264a.62.62 0 0 1 .178-.461c.142-.142.296-.213.461-.213h2.557c.189 0 .343.071.462.213a.571.571 0 0 1 .213.461v16.264c0 .166-.071.32-.213.462a.575.575 0 0 1-.462.213Zm18.556-2.77v2.131c0 .166-.071.319-.213.461a.623.623 0 0 1-.462.178h-13.565a.75.75 0 0 1-.497-.178.707.707 0 0 1-.178-.461v-2.095c0-.284.048-.521.142-.711.119-.213.367-.52.746-.923l8.487-9.339c.19-.19.261-.32.213-.391-.023-.095-.165-.142-.426-.142h-8.203a.755.755 0 0 1-.497-.177.71.71 0 0 1-.178-.462v-2.06c0-.189.071-.343.213-.461.143-.142.296-.213.462-.213h13.033c.189 0 .343.071.461.213a.571.571 0 0 1 .213.461v2.166c0 .166-.023.308-.071.427a1.834 1.834 0 0 1-.213.319l-9.233 10.121c-.142.166-.189.296-.142.39.048.071.178.107.391.107h8.842c.19 0 .343.071.462.213.142.118.213.26.213.426Zm18.864 2.77h-2.45a.705.705 0 0 1-.462-.178.753.753 0 0 1-.177-.497v-1.775a7.642 7.642 0 0 1-2.593 2.024 7.423 7.423 0 0 1-3.231.71c-2.462 0-4.546-.876-6.25-2.628-1.681-1.752-2.521-3.918-2.521-6.498 0-2.581.852-4.747 2.556-6.499 1.705-1.752 3.788-2.628 6.25-2.628 1.16 0 2.226.237 3.196.711a7.254 7.254 0 0 1 2.593 1.988v-1.669c0-.189.059-.343.177-.461.142-.142.296-.213.462-.213h2.45c.189 0 .343.071.462.213a.571.571 0 0 1 .213.461v16.264c0 .166-.071.32-.213.462a.575.575 0 0 1-.462.213Zm-13.778-8.842c0 1.562.521 2.888 1.562 3.977 1.042 1.065 2.308 1.598 3.8 1.598 1.491 0 2.746-.533 3.764-1.598 1.042-1.065 1.563-2.391 1.563-3.977 0-1.586-.521-2.912-1.563-3.977-1.018-1.066-2.273-1.598-3.764-1.598-1.492 0-2.758.544-3.8 1.633-1.041 1.065-1.562 2.379-1.562 3.942ZM364.068 141h-1.704c-1.823 0-3.149-.402-3.978-1.207-.828-.829-1.243-2.131-1.243-3.907v-9.126h-1.988a.753.753 0 0 1-.497-.177.705.705 0 0 1-.178-.462v-2.06c0-.189.071-.343.213-.461.142-.142.296-.213.462-.213h1.988v-3.729c0-.189.06-.343.178-.462.142-.142.296-.213.462-.213h2.556c.19 0 .344.071.462.213a.575.575 0 0 1 .213.462v3.729h3.019c.189 0 .343.071.461.213a.571.571 0 0 1 .213.461v2.06c0 .166-.071.32-.213.462a.624.624 0 0 1-.461.177h-3.019v8.487c0 .852.178 1.456.533 1.811.355.355.947.533 1.775.533h.746c.19 0 .343.071.462.213a.572.572 0 0 1 .213.462v2.095c0 .166-.071.319-.213.461a.623.623 0 0 1-.462.178Zm7.373-22.123c0 .639-.237 1.195-.71 1.669-.45.45-.983.674-1.598.674-.616 0-1.16-.224-1.634-.674a2.345 2.345 0 0 1-.675-1.669c0-.616.225-1.148.675-1.598.474-.474 1.018-.71 1.634-.71.615 0 1.148.236 1.598.71.473.45.71.982.71 1.598ZM370.375 141h-2.556a.705.705 0 0 1-.462-.178.754.754 0 0 1-.178-.497v-16.264c0-.189.06-.343.178-.461.142-.142.296-.213.462-.213h2.556c.19 0 .344.071.462.213a.571.571 0 0 1 .213.461v16.264c0 .166-.071.32-.213.462a.572.572 0 0 1-.462.213Zm13.052-17.969c2.604 0 4.794.876 6.57 2.628 1.775 1.752 2.663 3.918 2.663 6.499 0 2.58-.888 4.746-2.663 6.498-1.776 1.752-3.966 2.628-6.57 2.628s-4.794-.876-6.569-2.628c-1.776-1.752-2.664-3.918-2.664-6.498 0-2.581.888-4.747 2.664-6.499 1.775-1.752 3.965-2.628 6.569-2.628Zm-5.327 9.127c0 1.562.509 2.876 1.527 3.941 1.042 1.066 2.309 1.598 3.8 1.598 1.468 0 2.723-.532 3.764-1.598 1.042-1.089 1.563-2.402 1.563-3.941 0-1.539-.521-2.841-1.563-3.906-1.041-1.089-2.296-1.634-3.764-1.634-1.491 0-2.758.533-3.8 1.598-1.018 1.065-1.527 2.379-1.527 3.942ZM409.888 141h-2.557a.702.702 0 0 1-.461-.178.749.749 0 0 1-.178-.497v-10.546c0-.995-.32-1.776-.959-2.344-.615-.592-1.444-.888-2.486-.888-1.065 0-1.953.308-2.663.923-.686.592-1.03 1.35-1.03 2.273v10.582c0 .166-.071.32-.213.462a.571.571 0 0 1-.461.213h-2.557a.705.705 0 0 1-.462-.178.753.753 0 0 1-.177-.497v-16.264c0-.189.059-.343.177-.461.142-.142.296-.213.462-.213h2.45c.189 0 .343.071.462.213a.571.571 0 0 1 .213.461v1.421c.473-.734 1.148-1.326 2.024-1.776.9-.45 1.894-.675 2.983-.675 1.917 0 3.409.545 4.474 1.634 1.089 1.089 1.634 2.592 1.634 4.51v11.15c0 .166-.071.32-.213.462a.575.575 0 0 1-.462.213Zm19.35-17.969c2.604 0 4.794.876 6.569 2.628 1.776 1.752 2.663 3.918 2.663 6.499 0 2.58-.887 4.746-2.663 6.498-1.775 1.752-3.965 2.628-6.569 2.628-2.605 0-4.794-.876-6.57-2.628-1.776-1.752-2.663-3.918-2.663-6.498 0-2.581.887-4.747 2.663-6.499 1.776-1.752 3.965-2.628 6.57-2.628Zm-5.327 9.127c0 1.562.509 2.876 1.527 3.941 1.042 1.066 2.308 1.598 3.8 1.598 1.467 0 2.722-.532 3.764-1.598 1.041-1.089 1.562-2.402 1.562-3.941 0-1.539-.521-2.841-1.562-3.906-1.042-1.089-2.297-1.634-3.764-1.634-1.492 0-2.758.533-3.8 1.598-1.018 1.065-1.527 2.379-1.527 3.942ZM445.649 141h-2.557a.705.705 0 0 1-.462-.178.753.753 0 0 1-.177-.497V126.76h-1.989c-.165 0-.319-.071-.461-.213-.142-.142-.213-.296-.213-.462v-2.059a.58.58 0 0 1 .177-.426.682.682 0 0 1 .497-.213h1.989v-1.421c0-1.823.426-3.125 1.278-3.906.876-.805 2.297-1.207 4.262-1.207h1.384c.19 0 .344.071.462.213.142.118.213.26.213.426v1.846c0 .166-.071.32-.213.462a.572.572 0 0 1-.462.213h-.745c-.876 0-1.48.189-1.811.568-.332.355-.497 1.101-.497 2.237v.569h3.018c.189 0 .343.071.462.213.142.118.213.26.213.426v2.059c0 .166-.071.32-.213.462a.575.575 0 0 1-.462.213h-3.018v13.565c0 .166-.071.32-.214.462a.571.571 0 0 1-.461.213Zm19.79 4.297c-.568.828-1.219 1.408-1.953 1.74-.71.331-1.704.497-2.983.497h-.674a.705.705 0 0 1-.462-.178.625.625 0 0 1-.178-.461v-2.131c0-.189.06-.355.178-.497a.71.71 0 0 1 .462-.178h.603c.805 0 1.397-.13 1.776-.39.402-.237.769-.77 1.101-1.598l.213-.533c.094-.237.13-.45.106-.639 0-.189-.059-.438-.177-.746l-6.392-15.873c-.095-.237-.083-.45.035-.639a.586.586 0 0 1 .533-.284h2.628c.189 0 .319.035.39.106.095.071.178.201.249.391l4.687 12.038c.048.142.095.213.142.213.071 0 .131-.071.178-.213l4.723-12.003c.071-.189.177-.319.319-.39a.939.939 0 0 1 .533-.142h2.379a.48.48 0 0 1 .462.284c.118.165.13.355.035.568l-6.427 15.838c-.616 1.515-1.101 2.639-1.456 3.373-.355.758-.698 1.373-1.03 1.847Zm18.938-22.266c2.604 0 4.794.876 6.569 2.628 1.776 1.752 2.663 3.918 2.663 6.499 0 2.58-.887 4.746-2.663 6.498-1.775 1.752-3.965 2.628-6.569 2.628-2.605 0-4.794-.876-6.57-2.628-1.776-1.752-2.663-3.918-2.663-6.498 0-2.581.887-4.747 2.663-6.499 1.776-1.752 3.965-2.628 6.57-2.628Zm-5.327 9.127c0 1.562.509 2.876 1.527 3.941 1.042 1.066 2.308 1.598 3.8 1.598 1.467 0 2.722-.532 3.764-1.598 1.041-1.089 1.562-2.402 1.562-3.941 0-1.539-.521-2.841-1.562-3.906-1.042-1.089-2.297-1.634-3.764-1.634-1.492 0-2.758.533-3.8 1.598-1.018 1.065-1.527 2.379-1.527 3.942ZM510.873 141h-2.45c-.166 0-.32-.071-.462-.213-.142-.142-.213-.296-.213-.462v-1.491c-.473.734-1.16 1.326-2.06 1.775-.876.45-1.858.675-2.947.675-1.918 0-3.421-.544-4.51-1.633-1.065-1.089-1.598-2.593-1.598-4.51v-11.08c0-.189.071-.343.213-.461.142-.142.296-.213.462-.213h2.557a.54.54 0 0 1 .426.213.571.571 0 0 1 .213.461v10.547c0 1.018.296 1.823.888 2.415.615.568 1.467.852 2.556.852 1.066 0 1.942-.308 2.628-.923.71-.616 1.065-1.385 1.065-2.308v-10.583a.57.57 0 0 1 .214-.461c.142-.142.295-.213.461-.213h2.557c.166 0 .308.071.426.213a.571.571 0 0 1 .213.461v16.264a.68.68 0 0 1-.213.497.578.578 0 0 1-.426.178Zm7.891 0h-2.557a.705.705 0 0 1-.462-.178.753.753 0 0 1-.177-.497v-16.264c0-.189.059-.343.177-.461.142-.142.296-.213.462-.213h2.45c.189 0 .343.071.462.213a.571.571 0 0 1 .213.461v1.101c.45-.686 1.006-1.207 1.669-1.562.663-.379 1.408-.569 2.237-.569.473 0 .9.06 1.278.178.403.095.675.237.817.426a.426.426 0 0 1 .249.32c.047.142.023.296-.071.461l-1.279 2.309a.54.54 0 0 1-.319.284.773.773 0 0 1-.462 0 4.842 4.842 0 0 0-.675-.142 1.655 1.655 0 0 0-.461-.071c-.9 0-1.61.331-2.131.994-.497.639-.746 1.503-.746 2.592v9.943c0 .166-.071.32-.213.462a.571.571 0 0 1-.461.213Zm23.136 0h-1.704c-1.823 0-3.149-.402-3.978-1.207-.828-.829-1.243-2.131-1.243-3.907v-9.126h-1.988a.753.753 0 0 1-.497-.177.705.705 0 0 1-.178-.462v-2.06c0-.189.071-.343.213-.461.142-.142.296-.213.462-.213h1.988v-3.729c0-.189.06-.343.178-.462.142-.142.296-.213.462-.213h2.556c.19 0 .344.071.462.213a.575.575 0 0 1 .213.462v3.729h3.019c.189 0 .343.071.461.213a.571.571 0 0 1 .213.461v2.06c0 .166-.071.32-.213.462a.624.624 0 0 1-.461.177h-3.019v8.487c0 .852.178 1.456.533 1.811.355.355.947.533 1.775.533h.746c.189 0 .343.071.462.213a.572.572 0 0 1 .213.462v2.095c0 .166-.071.319-.213.461a.625.625 0 0 1-.462.178Zm17.245 0h-2.557a.705.705 0 0 1-.462-.178.753.753 0 0 1-.177-.497v-10.546c0-.995-.32-1.776-.959-2.344-.616-.592-1.444-.888-2.486-.888-1.065 0-1.953.308-2.663.923-.687.592-1.03 1.35-1.03 2.273v10.582c0 .166-.071.32-.213.462a.572.572 0 0 1-.462.213h-2.556a.705.705 0 0 1-.462-.178.754.754 0 0 1-.178-.497v-22.798c0-.189.06-.343.178-.461.142-.142.296-.213.462-.213h2.556c.19 0 .344.071.462.213a.571.571 0 0 1 .213.461v7.813c.474-.711 1.136-1.267 1.989-1.669.876-.426 1.846-.64 2.912-.64 1.917 0 3.409.545 4.474 1.634 1.089 1.089 1.633 2.592 1.633 4.51v11.15c0 .166-.071.32-.213.462a.571.571 0 0 1-.461.213Zm17.017-5.114c.165-.213.331-.367.497-.461.189-.095.402-.142.639-.142h2.486c.308 0 .509.083.603.248.119.166.107.403-.035.711-.687 1.538-1.787 2.769-3.303 3.693-1.491.899-3.184 1.349-5.078 1.349-2.675 0-4.865-.84-6.569-2.521-1.681-1.705-2.521-3.895-2.521-6.57 0-2.651.864-4.841 2.592-6.569 1.728-1.728 3.918-2.593 6.569-2.593 2.628 0 4.794.865 6.499 2.593 1.704 1.704 2.557 3.894 2.557 6.569 0 .332-.071.592-.213.782-.142.165-.344.248-.604.248h-13.352c.118 1.397.639 2.521 1.562 3.374.947.828 2.119 1.243 3.516 1.243.852 0 1.645-.166 2.379-.498a4.674 4.674 0 0 0 1.776-1.456Zm-4.155-9.41c-1.302 0-2.427.391-3.374 1.172-.923.757-1.479 1.752-1.669 2.983h9.979c-.213-1.255-.769-2.261-1.669-3.019-.9-.757-1.989-1.136-3.267-1.136ZM608.487 141h-2.557a.705.705 0 0 1-.462-.178.753.753 0 0 1-.177-.497v-10.546c0-1.018-.284-1.812-.852-2.38-.569-.568-1.362-.852-2.38-.852-1.16 0-2.024.32-2.592.959-.568.639-.852 1.657-.852 3.054v9.765c0 .166-.071.32-.213.462a.573.573 0 0 1-.462.213h-2.592a.705.705 0 0 1-.462-.178.753.753 0 0 1-.177-.497v-10.546c0-1.018-.284-1.812-.853-2.38-.544-.568-1.325-.852-2.343-.852-1.042 0-1.882.296-2.522.888-.639.592-.958 1.361-.958 2.308v10.582c0 .166-.071.32-.213.462a.575.575 0 0 1-.462.213h-2.557a.707.707 0 0 1-.462-.178.753.753 0 0 1-.177-.497v-16.264c0-.189.059-.343.177-.461.143-.142.296-.213.462-.213h2.45c.19 0 .344.071.462.213a.571.571 0 0 1 .213.461v1.421c.521-.805 1.184-1.409 1.989-1.811.805-.403 1.752-.604 2.841-.604 1.183 0 2.213.249 3.089.746a4.725 4.725 0 0 1 2.024 2.166c.971-1.184 1.847-1.965 2.628-2.344.781-.402 1.681-.604 2.699-.604 1.894 0 3.361.545 4.403 1.634 1.042 1.065 1.563 2.569 1.563 4.51v11.15c0 .166-.071.32-.213.462a.575.575 0 0 1-.462.213Zm17.022-5.114a1.76 1.76 0 0 1 .498-.461c.189-.095.402-.142.639-.142h2.485c.308 0 .509.083.604.248.119.166.107.403-.035.711-.687 1.538-1.788 2.769-3.303 3.693-1.491.899-3.184 1.349-5.078 1.349-2.675 0-4.865-.84-6.569-2.521-1.681-1.705-2.522-3.895-2.522-6.57 0-2.651.864-4.841 2.593-6.569 1.728-1.728 3.918-2.593 6.569-2.593 2.628 0 4.794.865 6.499 2.593 1.704 1.704 2.556 3.894 2.556 6.569 0 .332-.071.592-.213.782-.142.165-.343.248-.603.248h-13.352c.118 1.397.639 2.521 1.562 3.374.947.828 2.119 1.243 3.516 1.243.852 0 1.645-.166 2.379-.498a4.663 4.663 0 0 0 1.775-1.456Zm-4.154-9.41c-1.302 0-2.427.391-3.374 1.172-.923.757-1.48 1.752-1.669 2.983h9.979c-.213-1.255-.77-2.261-1.669-3.019-.9-.757-1.989-1.136-3.267-1.136Zm17.765 9.872a2.31 2.31 0 0 1 1.74.746 2.31 2.31 0 0 1 .746 1.74c0 .663-.249 1.231-.746 1.704-.473.474-1.053.711-1.74.711a2.321 2.321 0 0 1-1.704-.711 2.32 2.32 0 0 1-.71-1.704c0-.687.236-1.267.71-1.74.473-.497 1.041-.746 1.704-.746Zm1.776-3.373a.682.682 0 0 1-.213.497.573.573 0 0 1-.462.213h-2.273a.704.704 0 0 1-.461-.178.75.75 0 0 1-.178-.497c0-.829.19-1.645.568-2.45.403-.829 1.208-1.941 2.415-3.338 1.018-1.16 1.681-2.036 1.989-2.628.308-.592.461-1.172.461-1.74 0-.852-.284-1.503-.852-1.953-.544-.45-1.361-.675-2.45-.675-1.16 0-2.083.296-2.77.888-.663.568-.994 1.29-.994 2.166 0 .284-.059.485-.178.604-.118.118-.319.177-.604.177h-2.379a.708.708 0 0 1-.461-.177.75.75 0 0 1-.178-.497v-.391c0-1.847.71-3.374 2.131-4.581 1.444-1.231 3.243-1.846 5.397-1.846 2.107 0 3.836.58 5.185 1.74 1.349 1.16 2.024 2.651 2.024 4.474 0 .9-.225 1.799-.675 2.699-.426.876-1.302 2.048-2.627 3.515-1.018 1.089-1.681 1.906-1.989 2.451-.284.544-.426 1.053-.426 1.527Z"/><path fill="#fff" stroke="#0D052C" stroke-linecap="round" stroke-linejoin="round" stroke-width="1.793" d="M27.367 84.571h111.052a2.367 2.367 0 0 1 2.367 2.367v8.03H25.008v-8.042a2.366 2.366 0 0 1 2.359-2.355v0ZM25.008 94.968h115.766v113.829a1.941 1.941 0 0 1-1.941 1.941H26.949a1.94 1.94 0 0 1-1.94-1.941V94.968Z"/><circle cx="34.589" cy="89.813" r="1.858" fill="#FF5986" stroke="#0D052C" stroke-linecap="round" stroke-linejoin="round" stroke-width="1.793"/><circle cx="42.816" cy="89.774" r="1.858" fill="#FFE483" stroke="#0D052C" stroke-linecap="round" stroke-linejoin="round" stroke-width="1.793"/><circle cx="51.044" cy="89.813" r="1.858" fill="#53F2D4" stroke="#0D052C" stroke-linecap="round" stroke-linejoin="round" stroke-width="1.793"/><rect width="48.537" height="3.672" x="72.914" y="87.956" stroke="#0D052C" stroke-linecap="round" stroke-linejoin="round" stroke-width="1.793" rx="1.836"/><path stroke="#0D052C" stroke-linecap="round" stroke-linejoin="round" stroke-width="1.793" d="M112.273 113.38c1.601 1.7 4.824 5.155 4.824 5.155M115.602 114.141c.209.205 1.029 1.077 1.972 2.094"/><path fill="#fff" stroke="#0D052C" stroke-linecap="round" stroke-linejoin="round" stroke-width="1.793" d="M31.867 79.996h111.052a2.367 2.367 0 0 1 2.367 2.367v8.03H29.512v-8.042a2.367 2.367 0 0 1 2.355-2.355v0ZM29.512 90.393h115.766v113.829a1.939 1.939 0 0 1-1.941 1.941H31.449a1.94 1.94 0 0 1-1.94-1.941V90.393h.003Z"/><circle cx="39.093" cy="85.238" r="1.858" fill="#FF5986" stroke="#0D052C" stroke-linecap="round" stroke-linejoin="round" stroke-width="1.793"/><circle cx="47.32" cy="85.198" r="1.858" fill="#FFE483" stroke="#0D052C" stroke-linecap="round" stroke-linejoin="round" stroke-width="1.793"/><circle cx="55.548" cy="85.238" r="1.858" fill="#53F2D4" stroke="#0D052C" stroke-linecap="round" stroke-linejoin="round" stroke-width="1.793"/><rect width="48.537" height="3.672" x="77.414" y="83.38" stroke="#0D052C" stroke-linecap="round" stroke-linejoin="round" stroke-width="1.793" rx="1.836"/><path stroke="#0D052C" stroke-linecap="round" stroke-linejoin="round" stroke-width="1.793" d="M116.766 108.808c1.601 1.696 4.827 5.151 4.827 5.151M120.106 109.566c.209.205 1.03 1.076 1.972 2.094"/><path fill="#fff" stroke="#0D052C" stroke-linecap="round" stroke-linejoin="round" stroke-width="1.793" d="M36.383 75.614h111.052a2.367 2.367 0 0 1 2.367 2.367v8.022H34.025v-8.03a2.367 2.367 0 0 1 2.358-2.359Z"/><path fill="#fff" stroke="#0D052C" stroke-linecap="round" stroke-linejoin="round" stroke-width="1.793" d="M34.025 86.003h115.769v113.829a1.94 1.94 0 0 1-1.94 1.941H35.965a1.94 1.94 0 0 1-1.94-1.941V86.003Z"/><circle cx="43.605" cy="80.856" r="1.858" fill="#FF5986" stroke="#0D052C" stroke-linecap="round" stroke-linejoin="round" stroke-width="1.793"/><circle cx="51.836" cy="80.817" r="1.858" fill="#FFE483" stroke="#0D052C" stroke-linecap="round" stroke-linejoin="round" stroke-width="1.793"/><circle cx="60.064" cy="80.856" r="1.858" fill="#53F2D4" stroke="#0D052C" stroke-linecap="round" stroke-linejoin="round" stroke-width="1.793"/><rect width="48.537" height="3.672" x="81.93" y="79.002" stroke="#0D052C" stroke-linecap="round" stroke-linejoin="round" stroke-width="1.793" rx="1.836"/><path stroke="#0D052C" stroke-linecap="round" stroke-linejoin="round" stroke-width="1.793" d="M121.282 104.426c1.601 1.696 4.823 5.151 4.823 5.151M124.622 105.184c.205.209 1.03 1.076 1.972 2.094"/><path fill="#fff" stroke="#0D052C" stroke-linecap="round" stroke-linejoin="round" stroke-width="1.793" d="M40.883 70.932H151.94a2.366 2.366 0 0 1 2.366 2.367v8.03H38.516v-8.038a2.367 2.367 0 0 1 2.367-2.359Z"/><path fill="#fff" stroke="#0D052C" stroke-linecap="round" stroke-linejoin="round" stroke-width="1.793" d="M38.517 81.33h115.777v113.828a1.94 1.94 0 0 1-1.94 1.941H40.469a1.942 1.942 0 0 1-1.952-1.941V81.329Z"/><circle cx="48.109" cy="76.174" r="1.858" fill="#FF5986" stroke="#0D052C" stroke-linecap="round" stroke-linejoin="round" stroke-width="1.793"/><circle cx="56.337" cy="76.135" r="1.858" fill="#FFE483" stroke="#0D052C" stroke-linecap="round" stroke-linejoin="round" stroke-width="1.793"/><circle cx="64.564" cy="76.174" r="1.858" fill="#53F2D4" stroke="#0D052C" stroke-linecap="round" stroke-linejoin="round" stroke-width="1.793"/><rect width="48.537" height="3.672" x="86.435" y="74.317" stroke="#0D052C" stroke-linecap="round" stroke-linejoin="round" stroke-width="1.793" rx="1.836"/><path stroke="#0D052C" stroke-linecap="round" stroke-linejoin="round" stroke-width="1.793" d="M125.786 99.745c1.601 1.696 4.824 5.151 4.824 5.151M129.123 100.502a129.31 129.31 0 0 1 1.972 2.094"/><path fill="#fff" stroke="#0D052C" stroke-linecap="round" stroke-linejoin="round" stroke-width="1.793" d="M45.175 66.578h111.052a2.367 2.367 0 0 1 2.367 2.367v8.03H42.816v-8.038a2.367 2.367 0 0 1 2.359-2.359Z"/><path fill="#fff" stroke="#0D052C" stroke-linecap="round" stroke-linejoin="round" stroke-width="1.793" d="M42.816 76.975h115.77v113.829a1.94 1.94 0 0 1-1.941 1.94H44.757a1.94 1.94 0 0 1-1.94-1.94V76.974Z"/><circle cx="52.397" cy="71.82" r="1.858" fill="#FF5986" stroke="#0D052C" stroke-linecap="round" stroke-linejoin="round" stroke-width="1.793"/><circle cx="60.624" cy="71.78" r="1.858" fill="#FFE483" stroke="#0D052C" stroke-linecap="round" stroke-linejoin="round" stroke-width="1.793"/><circle cx="68.852" cy="71.82" r="1.858" fill="#53F2D4" stroke="#0D052C" stroke-linecap="round" stroke-linejoin="round" stroke-width="1.793"/><rect width="48.537" height="3.672" x="90.722" y="69.966" stroke="#0D052C" stroke-linecap="round" stroke-linejoin="round" stroke-width="1.793" rx="1.836"/><path stroke="#0D052C" stroke-linecap="round" stroke-linejoin="round" stroke-width="1.793" d="M130.073 95.39c1.602 1.696 4.824 5.155 4.824 5.155M133.41 96.148a127.16 127.16 0 0 1 1.972 2.094"/><path fill="#fff" stroke="#0D052C" stroke-linecap="round" stroke-linejoin="round" stroke-width="1.793" d="M74.949 108.56h51.503v52.603H74.949z"/><path stroke="#0D052C" stroke-linecap="round" stroke-linejoin="round" stroke-width="1.793" d="M97.75 114.713c1.775 1.881 5.349 5.715 5.349 5.715M101.206 115.285l2.445 2.591M98.228 118.105c.229.229.71.726 1.767 1.854M74.95 108.56l51.502 52.599M126.452 108.56l-51.503 52.599"/><rect width="208.161" height="37.247" x="299.5" y="167.5" fill="#fff" stroke="#000" rx="18.623"/><path fill="#000" d="M321.421 190.276c1.259 0 2.364-.369 3.315-1.106.965-.75 1.608-1.728 1.929-2.933h-4.843a.425.425 0 0 1-.281-.101.398.398 0 0 1-.1-.261v-.703c0-.108.04-.195.12-.262a.367.367 0 0 1 .261-.12h6.29c.161 0 .268.033.322.1.053.054.073.148.06.282-.107 1.888-.831 3.456-2.17 4.702-1.327 1.232-2.961 1.848-4.903 1.848-2.01 0-3.691-.663-5.044-1.989-1.353-1.326-2.03-2.974-2.03-4.943 0-1.983.683-3.651 2.05-5.004 1.366-1.366 3.041-2.049 5.024-2.049a7.05 7.05 0 0 1 3.516.904 6.647 6.647 0 0 1 2.572 2.451.536.536 0 0 1 .081.483c-.054.147-.181.221-.382.221h-.824a.793.793 0 0 1-.362-.081 1.149 1.149 0 0 1-.281-.321 4.96 4.96 0 0 0-1.869-1.628 5.255 5.255 0 0 0-2.451-.583c-1.541 0-2.834.536-3.879 1.608s-1.567 2.384-1.567 3.938c0 1.554.522 2.867 1.567 3.939s2.338 1.608 3.879 1.608Zm18.767 1.286h-9.023a.403.403 0 0 1-.261-.101.424.424 0 0 1-.1-.281v-12.901c0-.107.033-.194.1-.261a.365.365 0 0 1 .261-.121h9.023c.107 0 .194.04.261.121.08.067.121.154.121.261v.703a.37.37 0 0 1-.121.262.353.353 0 0 1-.261.1h-7.375a.361.361 0 0 0-.261.121.325.325 0 0 0-.121.261v3.838c0 .094.034.181.101.261.08.067.174.101.281.101h5.325c.107 0 .194.04.261.12a.322.322 0 0 1 .121.261v.704c0 .094-.04.181-.121.261a.353.353 0 0 1-.261.1h-5.325a.365.365 0 0 0-.261.121.325.325 0 0 0-.121.261v3.999c0 .094.034.181.101.261.08.067.174.101.281.101h7.375c.107 0 .194.04.261.12.08.067.121.154.121.262v.703a.365.365 0 0 1-.121.261.353.353 0 0 1-.261.101Zm7.292 0h-.905a.4.4 0 0 1-.261-.101.424.424 0 0 1-.1-.281v-11.474a.305.305 0 0 0-.121-.241.322.322 0 0 0-.261-.121h-4.079a.368.368 0 0 1-.262-.12.368.368 0 0 1-.12-.262v-.703c0-.094.033-.174.1-.241a.385.385 0 0 1 .282-.121h10.549c.107 0 .195.04.262.121.08.067.12.147.12.241v.703c0 .094-.04.181-.12.262a.326.326 0 0 1-.262.12h-4.079a.383.383 0 0 0-.281.121.329.329 0 0 0-.101.241v11.474c0 .107-.04.201-.12.281a.33.33 0 0 1-.241.101Zm21.995 0h-.984a.463.463 0 0 1-.262-.081.635.635 0 0 1-.18-.241l-1.126-2.612a.243.243 0 0 0-.14-.161.365.365 0 0 0-.221-.06h-6.712a.376.376 0 0 0-.241.08.475.475 0 0 0-.141.201l-1.105 2.552a.68.68 0 0 1-.181.261.323.323 0 0 1-.201.061h-1.025c-.12 0-.207-.047-.261-.141a.424.424 0 0 1 0-.362l5.727-12.84a.54.54 0 0 1 .161-.241.371.371 0 0 1 .241-.081h.904c.081 0 .154.027.221.081a.68.68 0 0 1 .181.261l5.627 12.84a.387.387 0 0 1-.021.322.271.271 0 0 1-.261.161Zm-3.356-4.783-2.833-6.611c-.013-.054-.033-.08-.06-.08-.027 0-.054.026-.081.08l-2.853 6.611c-.027.08-.027.141 0 .181.027.04.08.06.161.06h5.526c.067 0 .114-.02.14-.06a.212.212 0 0 0 0-.181Zm17.256-1.407h-6.35a.367.367 0 0 0-.261.121.324.324 0 0 0-.12.261v5.426a.386.386 0 0 1-.121.281.329.329 0 0 1-.241.101h-.904a.403.403 0 0 1-.262-.101.424.424 0 0 1-.1-.281v-12.901c0-.107.033-.194.1-.261a.365.365 0 0 1 .262-.121h8.801c.107 0 .194.04.261.121a.322.322 0 0 1 .121.261v.703c0 .094-.04.181-.121.262a.353.353 0 0 1-.261.1h-7.154a.363.363 0 0 0-.261.121.324.324 0 0 0-.12.261v3.838c0 .094.033.181.1.261.08.067.174.101.281.101h6.35c.107 0 .195.04.261.12a.322.322 0 0 1 .121.261v.704c0 .094-.04.181-.121.261a.351.351 0 0 1-.261.1Zm5.15-.703h4.139c.67 0 1.246-.248 1.728-.743.483-.509.724-1.146.724-1.909 0-.777-.235-1.414-.703-1.909-.456-.509-1.039-.764-1.749-.764h-4.139a.361.361 0 0 0-.261.121.353.353 0 0 0-.101.261v4.561c0 .108.034.201.101.282.08.067.167.1.261.1Zm8.138 6.893h-1.105a.416.416 0 0 1-.221-.061 1.36 1.36 0 0 1-.201-.201l-3.095-4.923a.658.658 0 0 0-.201-.221.291.291 0 0 0-.18-.06h-3.135a.364.364 0 0 0-.261.12.356.356 0 0 0-.101.262v4.702c0 .094-.04.181-.12.261a.326.326 0 0 1-.262.121h-.864a.399.399 0 0 1-.261-.101.424.424 0 0 1-.1-.281v-12.901c0-.107.033-.194.1-.261a.361.361 0 0 1 .261-.121h5.948c1.126 0 2.07.389 2.834 1.166.763.763 1.145 1.721 1.145 2.873 0 .925-.248 1.715-.743 2.371-.483.657-1.186 1.159-2.11 1.508-.121.04-.201.093-.242.16-.04.067-.033.141.021.221l3.094 4.843c.081.134.101.255.06.362-.04.107-.127.161-.261.161Zm12.09 0h-9.022a.403.403 0 0 1-.262-.101.424.424 0 0 1-.1-.281v-12.901c0-.107.033-.194.1-.261a.365.365 0 0 1 .262-.121h9.022c.107 0 .194.04.261.121a.322.322 0 0 1 .121.261v.703c0 .094-.04.181-.121.262a.353.353 0 0 1-.261.1h-7.375c-.093 0-.18.04-.261.121a.324.324 0 0 0-.12.261v3.838c0 .094.033.181.1.261.08.067.174.101.281.101h5.325c.108 0 .195.04.262.12.08.067.12.154.12.261v.704c0 .094-.04.181-.12.261a.354.354 0 0 1-.262.1h-5.325a.369.369 0 0 0-.261.121.324.324 0 0 0-.12.261v3.999c0 .094.033.181.1.261.08.067.174.101.281.101h7.375c.107 0 .194.04.261.12a.323.323 0 0 1 .121.262v.703c0 .094-.04.181-.121.261a.353.353 0 0 1-.261.101Zm11.833 0h-9.022a.403.403 0 0 1-.262-.101.424.424 0 0 1-.1-.281v-12.901c0-.107.033-.194.1-.261a.365.365 0 0 1 .262-.121h9.022c.107 0 .194.04.261.121a.322.322 0 0 1 .121.261v.703c0 .094-.04.181-.121.262a.353.353 0 0 1-.261.1h-7.375c-.093 0-.18.04-.261.121a.324.324 0 0 0-.12.261v3.838c0 .094.033.181.1.261a.427.427 0 0 0 .281.101h5.326c.107 0 .194.04.261.12.08.067.12.154.12.261v.704c0 .094-.04.181-.12.261a.353.353 0 0 1-.261.1h-5.326a.369.369 0 0 0-.261.121.324.324 0 0 0-.12.261v3.999c0 .094.033.181.1.261a.427.427 0 0 0 .281.101h7.375c.107 0 .194.04.261.12a.323.323 0 0 1 .121.262v.703c0 .094-.04.181-.121.261a.353.353 0 0 1-.261.101Zm12.631-13.825c1.982 0 3.657.683 5.023 2.049 1.367 1.353 2.05 3.021 2.05 5.004 0 1.46-.442 2.786-1.326 3.978a7.152 7.152 0 0 1-3.416 2.553l4.863 1.165a.434.434 0 0 1 .241.141c.053.067.08.154.08.261v.824c0 .12-.047.207-.14.261a.385.385 0 0 1-.322.06l-7.917-2.13c-2.13-.576-3.698-1.44-4.702-2.592-1.005-1.165-1.508-2.673-1.508-4.521 0-1.983.684-3.651 2.05-5.004 1.367-1.366 3.041-2.049 5.024-2.049Zm-5.446 6.992c0 1.554.523 2.867 1.568 3.939 1.044 1.072 2.337 1.608 3.878 1.608 1.54 0 2.833-.536 3.878-1.608s1.567-2.385 1.567-3.939c0-1.554-.522-2.866-1.567-3.938s-2.338-1.608-3.878-1.608c-1.541 0-2.834.536-3.878 1.608-1.045 1.072-1.568 2.384-1.568 3.938Zm20.31 5.547c1.125 0 2.03-.396 2.713-1.186.683-.79 1.025-1.842 1.025-3.155v-7.656c0-.107.033-.194.1-.261a.365.365 0 0 1 .261-.121h.885c.093 0 .174.04.241.121.08.067.12.154.12.261v7.757c0 1.728-.489 3.108-1.467 4.139-.978 1.032-2.27 1.547-3.878 1.547s-2.9-.515-3.878-1.547c-.978-1.031-1.467-2.411-1.467-4.139v-7.757c0-.107.033-.194.1-.261a.365.365 0 0 1 .262-.121h.884c.094 0 .174.04.241.121.08.067.12.154.12.261v7.656c0 1.313.342 2.365 1.025 3.155.684.79 1.588 1.186 2.713 1.186Zm14.866-12.539c1.982 0 3.657.683 5.023 2.049 1.367 1.353 2.05 3.021 2.05 5.004 0 1.969-.676 3.617-2.029 4.943-1.354 1.326-3.035 1.989-5.044 1.989-2.01 0-3.691-.663-5.044-1.989-1.353-1.326-2.03-2.974-2.03-4.943 0-1.983.684-3.651 2.05-5.004 1.367-1.366 3.041-2.049 5.024-2.049Zm-5.446 6.992c0 1.554.523 2.867 1.567 3.939 1.045 1.072 2.338 1.608 3.879 1.608 1.54 0 2.833-.536 3.878-1.608s1.567-2.385 1.567-3.939c0-1.554-.522-2.866-1.567-3.938s-2.338-1.608-3.878-1.608c-1.541 0-2.834.536-3.879 1.608-1.044 1.072-1.567 2.384-1.567 3.938Zm18.965 6.833h-.904a.399.399 0 0 1-.261-.101.425.425 0 0 1-.101-.281v-11.474a.304.304 0 0 0-.12-.241.323.323 0 0 0-.262-.121h-4.079a.364.364 0 0 1-.261-.12.37.37 0 0 1-.121-.262v-.703c0-.094.034-.174.101-.241a.383.383 0 0 1 .281-.121h10.55c.107 0 .194.04.261.121a.302.302 0 0 1 .121.241v.703c0 .094-.04.181-.121.262a.324.324 0 0 1-.261.12h-4.079a.386.386 0 0 0-.282.121.328.328 0 0 0-.1.241v11.474c0 .107-.04.201-.121.281a.329.329 0 0 1-.241.101Zm16.335 0h-9.022a.399.399 0 0 1-.261-.101.425.425 0 0 1-.101-.281v-12.901c0-.107.034-.194.101-.261a.361.361 0 0 1 .261-.121h9.022c.108 0 .195.04.262.121.08.067.12.154.12.261v.703c0 .094-.04.181-.12.262a.354.354 0 0 1-.262.1h-7.374a.365.365 0 0 0-.262.121.324.324 0 0 0-.12.261v3.838c0 .094.033.181.1.261a.43.43 0 0 0 .282.101h5.325c.107 0 .194.04.261.12.08.067.121.154.121.261v.704a.365.365 0 0 1-.121.261.353.353 0 0 1-.261.1h-5.325a.37.37 0 0 0-.262.121.324.324 0 0 0-.12.261v3.999c0 .094.033.181.1.261a.43.43 0 0 0 .282.101h7.374c.108 0 .195.04.262.12.08.067.12.154.12.262v.703c0 .094-.04.181-.12.261a.354.354 0 0 1-.262.101Z"/><path stroke="#0D052C" stroke-linecap="round" stroke-linejoin="round" stroke-width=".406" d="M361.276 209.403a1.77 1.77 0 0 1-1.533.176l-.084-.03a1.954 1.954 0 0 0 1.617-.146v0Z"/><path fill="#FF5986" stroke="#0D052C" stroke-linecap="round" stroke-linejoin="round" stroke-width=".406" d="M336.195 257.043c-6.171 3.189-17.818-1.685-22.415-8.843-2.653-4.131-2.709-9.281-1.084-11.337v0l.209-.233v-.017l.032-.029c1.506-1.452 5.941-.686 7.607 0 16.475 6.789 15.651 20.459 15.651 20.459Z"/><path fill="#fff" stroke="#0D052C" stroke-linecap="round" stroke-linejoin="round" stroke-width=".406" d="M369.612 198.956c-1.438 2.26-2.815 3.82-4.418 6.643-.15.265-.319.518-.504.759l-.114.149a10.27 10.27 0 0 1-.623.712c-.044.041-.081.082-.122.122l-.271.271c-.423.399-.868.775-1.333 1.124l-.249.187c-.241.179-.469.334-.667.466l-.04.025a1.96 1.96 0 0 1-1.626.146h-.04c-2.709-.954-10.477-4.064-11.688-7.388.121-.336.276-.659.461-.964a38.158 38.158 0 0 1 4.578-6.055c1.444-1.547 3.566-3.885 5.99-5.725a13.521 13.521 0 0 1 3.701-2.077l.848.27c.038.225-.461.984-1.401 1.864a13.716 13.716 0 0 0 2.357-1.625c.962.176 1.577.504 2.541.964a28.338 28.338 0 0 1 4.747 2.929c.228.172.379.427.42.71v.094c.279 2.501-1.661 5.007-2.547 6.399Z"/><path stroke="#0D052C" stroke-linecap="round" stroke-linejoin="round" stroke-width=".406" d="M359.377 204.757c.742 1.335.975 2.774.713 3.92M350.041 200.804c1.691-.417 3.907-.043 5.581.653a7.693 7.693 0 0 1 2.98 2.184M365.321 191.883l-1.384 2.026M365.689 192.896l-.368.466M363.937 191.883l-.553.677M328.135 254.431c-4.302-.541-9.633-3.562-11.879-7.06-1.767-2.749-1.81-6.179-.715-7.547v0l.14-.155v0l.019-.019c1.006-.967 3.956-.457 5.066 0 8.16 3.365 10.509 9.648 11.176 12.63a1.789 1.789 0 0 1-1.469 2.168"/><path stroke="#0D052C" stroke-linecap="round" stroke-linejoin="round" stroke-width=".406" d="M322.855 243.115a10.531 10.531 0 0 1 5.256 7.155c.067.282.019.578-.133.824-.153.246-.398.42-.68.485-2.465.371-6.358-1.742-7.835-4.254-.972-1.652-.999-3.717-.395-4.54v0l.078-.095v0c.271-.293.813-.36 1.374-.322"/><path stroke="#0D052C" stroke-linecap="round" stroke-linejoin="round" stroke-width=".406" d="M325.128 248.176a.393.393 0 0 1-.298.48c-.902.135-2.33-.64-2.871-1.558-.358-.607-.366-1.355-.147-1.666v0l.027-.036v0c.204-.214.813-.1 1.024 0a3.877 3.877 0 0 1 2.265 2.78v0Z"/><path fill="#FFE2BF" stroke="#0D052C" stroke-linecap="round" stroke-linejoin="round" stroke-width=".406" d="M373.107 213.35c-6.171 13.161-14.299 21.592-22.21 29.92a166.573 166.573 0 0 1-14.702 13.773s.813-13.676-15.626-20.462c-1.669-.686-6.101-1.452-7.61 0l-.03.03c1.495-1.677 10.79-10.726 15.247-15.656 16.485-18.236 19.72-18.907 19.72-18.907s.021.065.035.097c1.211 3.338 8.981 6.437 11.69 7.391h.041c.537.19 1.13.137 1.625-.147l.041-.024c.197-.133.425-.287.666-.466.081-.06.165-.119.249-.187.465-.35.91-.725 1.333-1.124.09-.084.179-.171.271-.271.041-.038.081-.081.122-.122a10.286 10.286 0 0 0 .737-.862c.186-.24.354-.494.504-.758 1.604-2.823 2.98-4.384 4.418-6.643.886-1.392 2.826-3.898 2.558-6.396.135.189 7.025 7.797.921 20.814Z"/><path stroke="#0D052C" stroke-linecap="round" stroke-linejoin="round" stroke-width=".406" d="M373.134 204.651c-.157 2.146-.856 4.966-2.926 7.981M372.79 200.628c.247.876.373 1.781.377 2.69M370.88 202.346s.997 2.999-1.132 6.634M358.613 230.458c-4.605 5.056-12.665 13.803-17.409 18.214M362.092 226.606s-.767.856-2.03 2.254M332.614 219.695s6.772.374 9.891 6.71M341.364 220.546c.412.407.793.845 1.141 1.308M336.051 217.988s2.03-.016 4.289 1.682M334.534 223.049s1.523.585 2.306 1.414"/><path fill="#1D1E5F" stroke="#0D052C" stroke-linecap="round" stroke-linejoin="round" stroke-width="1.745" d="M.928 24.26C.928 11.415 11.342 1 24.188 1H657.74C670.586 1 681 11.414 681 24.26V53.5H.928V24.26Z"/><circle cx="37.901" cy="27.343" r="8.141" fill="#FF5986" stroke="#0D052C" stroke-linecap="round" stroke-linejoin="round" stroke-width="1.745"/><circle cx="74.001" cy="27.157" r="8.141" fill="#FFE483" stroke="#0D052C" stroke-linecap="round" stroke-linejoin="round" stroke-width="1.745"/><circle cx="110.102" cy="27.343" r="8.141" fill="#53F2D4" stroke="#0D052C" stroke-linecap="round" stroke-linejoin="round" stroke-width="1.745"/></svg>