<svg xmlns="http://www.w3.org/2000/svg" baseProfile="tiny" viewBox="0 0 200 50" xmlns:v="https://vecta.io/nano"><path d="M181.6 9.5H18.4C9.9 9.5 3 16.5 3 25h0c0 8.5 7 15.5 15.5 15.5h163.1c8.5 0 15.5-7 15.5-15.5h0c-.1-8.5-7-15.5-15.5-15.5zm-1 28.8c-7.4 0-13.3-6-13.3-13.3s6-13.3 13.3-13.3S194 17.6 194 25s-6 13.3-13.4 13.3zm6.1-9.4c-1.2 1.6-.6 3.2-.6 3.2.1 1 .4 1.8.6 2.4h-8.4c.2-2.5-1.7-2.3-1.7-2.3-.7.1-2.1 0-2.1 0-1.2.1-.7-1.6-.7-1.6.2-.5-.3-1-.3-1-.4-.2.2-.7.2-.7-.8-.2-.1-1.2-.1-1.2.2-.8-.8-.8-.8-.8-1.2-.4.8-2.5.8-2.5.2-.3.3-.6.4-.8.1-.4 0-.8 0-1.2-.2-.7.1-1.4.1-1.4.5-4.2 4.1-5 4.1-5 5.4-1.4 8.1.7 9 1.7l-1.4 2-1.3-1.7-1.9 2.6-1-1.3-2 3.6 2-2.2 1.2 1.2 1.8-2.7 1.2 1.9 2-2.6c3.2 5-1.1 10.4-1.1 10.4zm-169.5.5h-1.4c-.1 0-.1 0-.2-.1s-.1-.1-.1-.2l-3.6-9.4v-.2s.1-.1.2-.1h1.4c.1 0 .1 0 .2.1 0 0 .1.1.1.2l2.7 7.1 2.7-7.1c0-.1.1-.1.1-.2 0 0 .1-.1.2-.1H21c.1 0 .2 0 .2.1v.3l-3.7 9.3c0 .1-.1.1-.1.2s-.2.1-.2.1zM23 19.1c.3 0 .5.1.7.3a1.08 1.08 0 0 1 .3.7c0 .3-.1.5-.3.7a1.08 1.08 0 0 1-.7.3c-.3 0-.5-.1-.7-.3s-.3-.4-.3-.6c0-.3.1-.5.3-.7.2-.3.4-.4.7-.4zm.6 10.3h-1.3c-.1 0-.1 0-.2-.1s-.1-.1-.1-.2v-6.8c0-.1 0-.1.1-.2s.1-.1.2-.1h1.3c.1 0 .1 0 .2.1s.1.1.1.2v6.8c0 .1 0 .1-.1.2 0 .1-.1.1-.2.1zm8.8 0h-1.2c-.1 0-.1 0-.2-.1s-.1-.1-.1-.2v-.7c-.3.3-.6.6-1 .8s-.8.3-1.3.3c-1 0-1.8-.4-2.5-1.1s-1-1.6-1-2.7.3-2 1-2.7 1.5-1.1 2.5-1.1c.4 0 .8.1 1.2.2s.7.4 1 .7v-3.2c0-.1 0-.1.1-.2s.1-.1.2-.1h1.3c.1 0 .1 0 .2.1s.1.1.1.2V29c0 .1 0 .1-.1.2s-.1.2-.2.2zm-3.5-5.7c-.6 0-1 .2-1.4.6s-.6.9-.6 1.5.2 1.1.6 1.5.9.6 1.4.6 1-.2 1.4-.6.6-.9.6-1.5-.2-1.1-.6-1.5-.8-.6-1.4-.6zm10.2 3.5l.2-.2c.1-.1.2-.1.3-.1h1.3c.1 0 .2 0 .3.1v.3c-.3.7-.7 1.2-1.3 1.6s-1.4.6-2.2.6a3.69 3.69 0 0 1-2.7-1.1 3.69 3.69 0 0 1-1.1-2.7A3.69 3.69 0 0 1 35 23a3.69 3.69 0 0 1 2.7-1.1 3.69 3.69 0 0 1 2.7 1.1 3.69 3.69 0 0 1 1.1 2.7c0 .2 0 .3-.1.4s-.1.1-.2.1h-5.3c.1.5.3.9.6 1.2s.8.4 1.3.4c.3 0 .6-.1.9-.2 0 0 .2-.1.4-.4zm-1.5-3.6c-.5 0-.9.1-1.2.4s-.5.6-.6 1.1h3.7c-.1-.5-.3-.8-.6-1.1-.5-.2-.9-.4-1.3-.4zm4.5 2.2a3.69 3.69 0 0 1 1.1-2.7 3.69 3.69 0 0 1 2.7-1.1 3.69 3.69 0 0 1 2.7 1.1 3.69 3.69 0 0 1 1.1 2.7 3.69 3.69 0 0 1-1.1 2.7 3.69 3.69 0 0 1-2.7 1.1 3.69 3.69 0 0 1-2.7-1.1c-.7-.8-1.1-1.7-1.1-2.7zm3.8-2.1c-.6 0-1 .2-1.4.6s-.6.9-.6 1.5.2 1.1.6 1.5.9.6 1.4.6 1-.2 1.4-.6.6-.9.6-1.5-.2-1.1-.6-1.5c-.3-.4-.8-.6-1.4-.6zm11 5.7h-.8c-.8 0-1.3-.2-1.7-.5s-.5-.9-.5-1.6v-3.6h-.7c-.1 0-.1 0-.2-.1s-.1-.1-.1-.2v-1.1c0-.1 0-.1.1-.2s.1-.1.2-.1h.7v-1.5c0-.1 0-.1.1-.2s.1-.1.2-.1h1.3c.1 0 .1 0 .2.1s.1.1.1.2V22H57c.1 0 .1 0 .2.1s.1.1.1.2v1.1c0 .1 0 .1-.1.2s-.1.1-.2.1h-1.2V27c0 .3.1.5.2.7.1.1.4.2.7.2h.3c.1 0 .1 0 .2.1s.1.1.1.2v1.1c0 .1 0 .1-.1.2s-.2-.1-.3-.1zm7.2 0h-1.3c-.1 0-.1 0-.2-.1s-.1-.1-.1-.2v-.6a1.85 1.85 0 0 1-.8.7c-.4.2-.8.3-1.2.3-.8 0-1.4-.2-1.8-.7-.4-.4-.7-1.1-.7-1.9v-4.6c0-.1 0-.1.1-.2s.1-.1.2-.1h1.3c.1 0 .1 0 .2.1s.1.1.1.2v4.3c0 .4.1.7.3.9s.5.3.9.3a1.69 1.69 0 0 0 1-.3c.3-.2.4-.5.4-.9v-4.3c0-.1 0-.1.1-.2s.1-.1.2-.1h1.3c.1 0 .1 0 .2.1s.1.1.1.2v6.8c0 .1 0 .1-.1.2 0 .1-.1.1-.2.1zm5.2 0h-.8c-.8 0-1.3-.2-1.7-.5s-.5-.9-.5-1.6v-3.6h-.7c-.1 0-.1 0-.2-.1s-.1-.1-.1-.2v-1.1c0-.1 0-.1.1-.2s.1-.1.2-.1h.7v-1.5c0-.1 0-.1.1-.2s.1-.1.2-.1h1.3c.1 0 .1 0 .2.1s.1.1.1.2V22h1.2c.1 0 .1 0 .2.1s.1.1.1.2v1.1c0 .1 0 .1-.1.2s-.1.1-.2.1h-1.2V27c0 .3.1.5.2.7.1.1.4.2.7.2h.3c.1 0 .1 0 .2.1s.1.1.1.2v1.1c0 .1 0 .1-.1.2s-.2-.1-.3-.1zm.8-3.6a3.69 3.69 0 0 1 1.1-2.7 3.69 3.69 0 0 1 2.7-1.1 3.69 3.69 0 0 1 2.7 1.1 3.69 3.69 0 0 1 1.1 2.7 3.69 3.69 0 0 1-1.1 2.7 3.69 3.69 0 0 1-2.7 1.1 3.69 3.69 0 0 1-2.7-1.1c-.7-.8-1.1-1.7-1.1-2.7zm3.8-2.1c-.6 0-1 .2-1.4.6s-.6.9-.6 1.5.2 1.1.6 1.5.9.6 1.4.6 1-.2 1.4-.6.6-.9.6-1.5-.2-1.1-.6-1.5c-.3-.4-.8-.6-1.4-.6zm6.6 5.7h-1.3c-.1 0-.1 0-.2-.1s-.1-.1-.1-.2v-6.8c0-.1 0-.1.1-.2s.1-.1.2-.1h1.3c.1 0 .1 0 .2.1s.1.1.1.2v.5c.2-.3.4-.5.7-.6s.6-.2.9-.2c.2 0 .4 0 .6.1s.3.1.3.2l.1.1v.2l-.6 1.1c0 .1-.1.1-.1.1h-.2c-.1 0-.2 0-.3-.1s-.1 0-.2 0c-.3 0-.6.1-.8.4-.2.2-.3.6-.3 1v4c0 .1 0 .1-.1.2-.2.1-.3.1-.3.1zm4.4-10.3c.3 0 .5.1.7.3a1.08 1.08 0 0 1 .3.7c0 .3-.1.5-.3.7a1.08 1.08 0 0 1-.7.3c-.3 0-.5-.1-.7-.3a1.08 1.08 0 0 1-.3-.7c0-.3.1-.5.3-.7s.4-.3.7-.3zm.6 10.3h-1.3c-.1 0-.1 0-.2-.1 0 0 0-.1 0-.1v-6.8c0-.1 0-.1.1-.2s.1-.1.2-.1h1.3c.1 0 .1 0 .2.1s.1.1.1.2v6.8c0 .1 0 .1-.1.2h-.3zm8.8 0h-1.2c-.1 0-.1 0-.2-.1s-.1-.1-.1-.2v-.6c-.3.3-.6.6-1 .8s-.8.3-1.3.3c-1 0-1.8-.4-2.5-1.1s-1-1.6-1-2.7.3-2 1-2.7 1.5-1.1 2.5-1.1a3.08 3.08 0 0 1 1.3.3c.4.2.7.4 1 .8v-.6c0-.1 0-.1.1-.2s.1-.1.2-.1h1.2c.1 0 .1 0 .2.1s.1.1.1.2v6.8c0 .1 0 .1-.1.2s-.1-.1-.2-.1zm-3.5-5.7c-.6 0-1 .2-1.4.6s-.6.9-.6 1.5.2 1.1.6 1.5.9.6 1.4.6 1-.2 1.4-.6.6-.9.6-1.5-.2-1.1-.6-1.5-.8-.6-1.4-.6zm6.9 5.7h-1.3c-.1 0-.1 0-.2-.1s-.1-.1-.1-.2v-9.4c0-.1 0-.1.1-.2s.1-.1.2-.1h1.3c.1 0 .1 0 .2.1s.1.1.1.2v9.4c0 .1 0 .1-.1.2s-.2.1-.2.1zm11.3 0h-1.2c-.1 0-.1 0-.2-.1s-.1-.1-.1-.2v-.6c-.3.3-.6.6-1 .8s-.8.3-1.3.3c-1 0-1.8-.4-2.5-1.1s-1-1.6-1-2.7.3-2 1-2.7 1.5-1.1 2.5-1.1a3.08 3.08 0 0 1 1.3.3c.4.2.7.4 1 .8v-.6c0-.1 0-.1.1-.2s.1-.1.2-.1h1.2c.1 0 .1 0 .2.1s.1.1.1.2v6.8c0 .1 0 .1-.1.2 0-.1-.1-.1-.2-.1zm-3.4-5.7c-.6 0-1 .2-1.4.6s-.6.9-.6 1.5.2 1.1.6 1.5.9.6 1.4.6c.6 0 1-.2 1.4-.6s.6-.9.6-1.5-.2-1.1-.6-1.5-.9-.6-1.4-.6zm8.9 5.7H113c-.1 0-.1 0-.2-.1s-.1-.1-.1-.2l-2.5-6.7v-.3c0-.1.1-.1.2-.1h1.3c.1 0 .1 0 .2.1s.1.1.1.2l1.7 4.7s0 .1.1.1 0 0 0-.1l1.8-4.8c0-.1.1-.1.1-.2 0 0 .1-.1.2-.1h1.3c.1 0 .2 0 .2.1v.2l-2.7 6.7c0 .1-.1.1-.1.2s-.1.3-.1.3zm10.5 0h-1.2c-.1 0-.1 0-.2-.1s-.1-.1-.1-.2v-.6c-.3.3-.6.6-1 .8s-.8.3-1.3.3c-1 0-1.8-.4-2.5-1.1s-1-1.6-1-2.7.3-2 1-2.7 1.5-1.1 2.5-1.1a3.08 3.08 0 0 1 1.3.3c.4.2.7.4 1 .8v-.6c0-.1 0-.1.1-.2s.1-.1.2-.1h1.2c.1 0 .1 0 .2.1s.1.1.1.2v6.8c0 .1 0 .1-.1.2 0-.1-.1-.1-.2-.1zm-3.5-5.7c-.6 0-1 .2-1.4.6s-.6.9-.6 1.5.2 1.1.6 1.5.9.6 1.4.6c.6 0 1-.2 1.4-.6s.6-.9.6-1.5-.2-1.1-.6-1.5c-.3-.4-.8-.6-1.4-.6zm6.3-4.6c.3 0 .5.1.7.3a1.08 1.08 0 0 1 .3.7c0 .3-.1.5-.3.7a1.08 1.08 0 0 1-.7.3c-.3 0-.5-.1-.7-.3a1.08 1.08 0 0 1-.3-.7c0-.3.1-.5.3-.7.1-.2.4-.3.7-.3zm.6 10.3h-1.3c-.1 0-.1 0-.2-.1s-.1-.1-.1-.2v-6.8c0-.1 0-.1.1-.2s.1-.1.2-.1h1.3c.1 0 .1 0 .2.1s.1.1.1.2v6.8c0 .1 0 .1-.1.2s-.1.1-.2.1zm3.4 0h-1.3c-.1 0-.1 0-.2-.1s-.1-.1-.1-.2v-9.4c0-.1 0-.1.1-.2s.1-.1.2-.1h1.3c.1 0 .1 0 .2.1s.1.1.1.2v9.4c0 .1 0 .1-.1.2s-.1.1-.2.1zm8.8 0h-1.2c-.1 0-.1 0-.2-.1s-.1-.1-.1-.2v-.6c-.3.3-.6.6-1 .8s-.8.3-1.3.3c-1 0-1.8-.4-2.5-1.1s-1-1.6-1-2.7.3-2 1-2.7 1.5-1.1 2.5-1.1a3.08 3.08 0 0 1 1.3.3c.4.2.7.4 1 .8v-.6c0-.1 0-.1.1-.2s.1-.1.2-.1h1.2c.1 0 .1 0 .2.1s.1.1.1.2v6.8c0 .1 0 .1-.1.2-.1-.1-.2-.1-.2-.1zm-3.5-5.7c-.6 0-1 .2-1.4.6s-.6.9-.6 1.5.2 1.1.6 1.5.9.6 1.4.6c.6 0 1-.2 1.4-.6s.6-.9.6-1.5-.2-1.1-.6-1.5-.9-.6-1.4-.6zm6.8 5.7h-1.3c-.1 0-.1 0-.2-.1s-.1-.1-.1-.2v-9.4c0-.1 0-.1.1-.2s.1-.1.2-.1h1.3c.1 0 .1 0 .2.1s.1.1.1.2V23c.3-.3.6-.6 1-.7.4-.2.8-.2 1.3-.2 1 0 1.8.4 2.5 1.1s1 1.6 1 2.7-.3 2-1 2.7-1.5 1.1-2.5 1.1c-.5 0-.9-.1-1.3-.3s-.7-.4-1-.8v.7c0 .1 0 .1-.1.2s-.2-.1-.2-.1zm2.2-5.7c-.6 0-1 .2-1.4.6s-.6.9-.6 1.5.2 1.1.6 1.5.9.6 1.4.6c.6 0 1-.2 1.4-.6s.6-.9.6-1.5-.2-1.1-.6-1.5-.8-.6-1.4-.6zm6.5 5.7h-1.3c-.1 0-.1 0-.2-.1s-.1-.1-.1-.2v-9.4c0-.1 0-.1.1-.2s.1-.1.2-.1h1.3c.1 0 .1 0 .2.1s.1.1.1.2v9.4c0 .1 0 .1-.1.2s-.1.1-.2.1zm6.8-2.2l.2-.2c.1-.1.2-.1.3-.1h1.3c.1 0 .2 0 .3.1s0 .2 0 .3c-.3.7-.7 1.2-1.3 1.6s-1.4.6-2.2.6a3.69 3.69 0 0 1-2.7-1.1 3.69 3.69 0 0 1-1.1-2.7 3.69 3.69 0 0 1 1.1-2.7 3.69 3.69 0 0 1 2.7-1.1 3.69 3.69 0 0 1 2.7 1.1 3.69 3.69 0 0 1 1.1 2.7c0 .2 0 .3-.1.4s-.1.1-.2.1H156c.1.5.3.9.6 1.2s.8.4 1.3.4c.3 0 .6-.1.9-.2.2 0 .4-.1.6-.4zm-1.6-3.6c-.5 0-.9.1-1.2.4s-.5.6-.6 1.1h3.7c-.1-.5-.3-.8-.6-1.1-.4-.2-.8-.4-1.3-.4z"/></svg>